<?xml version="1.0" standalone="no"?>
<!DOCTYPE svg PUBLIC "-//W3C//DTD SVG 20010904//EN"
 "http://www.w3.org/TR/2001/REC-SVG-20010904/DTD/svg10.dtd">
<svg version="1.0" xmlns="http://www.w3.org/2000/svg"
 width="500.000000pt" height="500.000000pt" viewBox="0 0 500.000000 500.000000"
 preserveAspectRatio="xMidYMid meet">

<g transform="translate(0.000000,500.000000) scale(0.100000,-0.100000)"
fill="#000000" stroke="none">
<path d="M2346 3748 l-146 -143 150 -150 150 -150 145 145 c80 80 145 148 145
151 0 8 -277 283 -289 287 -5 2 -75 -61 -155 -140z m192 -84 c35 -24 28 -84
-12 -103 -26 -12 -33 -12 -55 0 -36 20 -42 80 -9 103 12 9 29 16 38 16 9 0 26
-7 38 -16z"/>
<path d="M2080 3399 c-87 -39 -129 -103 -47 -72 26 10 77 16 137 17 90 1 99
-1 165 -34 39 -19 74 -37 78 -39 5 -2 2 10 -6 25 -22 41 -76 90 -119 108 -53
23 -153 20 -208 -5z"/>
<path d="M2710 3404 c-42 -18 -86 -59 -106 -96 -8 -15 -14 -29 -14 -32 0 -2
29 11 64 29 37 19 88 36 119 40 48 6 83 3 222 -22 l30 -6 -25 28 c-41 46 -116
75 -190 75 -36 -1 -81 -8 -100 -16z"/>
<path d="M2110 3281 c-52 -11 -92 -35 -132 -79 -45 -50 -61 -99 -56 -172 12
-167 160 -245 394 -210 95 14 97 17 61 90 -26 53 -52 60 -124 36 -91 -31 -161
-12 -204 56 -57 93 47 193 164 158 41 -12 130 -90 154 -133 9 -18 13 -17 68
12 32 17 65 31 74 31 10 0 39 -14 66 -31 45 -28 49 -29 58 -13 21 37 92 106
129 125 93 47 208 -5 208 -95 0 -34 -40 -87 -83 -109 -38 -19 -40 -19 -117 -2
-106 24 -124 18 -150 -51 -11 -31 -19 -58 -17 -60 1 -2 36 -8 77 -15 154 -24
287 6 351 78 41 47 51 77 51 150 1 113 -62 198 -171 230 -109 31 -206 0 -305
-101 -58 -59 -69 -66 -105 -66 -35 0 -46 6 -97 60 -87 92 -195 132 -294 111z"/>
<path d="M2475 3020 c-3 -5 -3 -76 1 -158 l7 -148 -94 8 c-52 5 -157 7 -234 6
l-140 -3 173 -64 c94 -35 172 -66 172 -68 0 -1 -29 -16 -64 -32 -115 -52 -149
-146 -87 -243 26 -41 173 -178 191 -178 10 0 70 68 70 78 0 4 -31 39 -69 78
-96 97 -103 145 -28 189 53 32 115 95 126 128 12 38 35 381 27 402 -6 17 -42
20 -51 5z"/>
<path d="M2655 2719 c-34 -10 -55 -34 -55 -62 0 -10 -23 -46 -51 -80 -78 -93
-80 -101 -68 -204 5 -48 13 -95 16 -103 3 -8 15 41 27 110 25 147 29 151 112
96 47 -32 54 -40 54 -69 0 -30 -14 -46 -124 -151 -69 -64 -147 -134 -174 -156
-28 -22 -52 -50 -56 -65 -9 -34 8 -85 48 -150 l31 -50 6 85 c9 130 28 155 174
235 107 59 171 110 201 161 59 101 24 193 -94 246 -55 25 -63 32 -47 38 11 4
85 31 164 59 79 28 151 56 160 61 21 12 -282 12 -324 -1z"/>
<path d="M2515 2060 c-26 -28 -30 -39 -33 -106 -3 -41 -1 -105 4 -142 l7 -67
8 45 c5 25 11 80 14 122 6 74 30 128 55 128 5 0 11 -46 12 -102 l3 -103 38 60
c27 44 37 70 37 101 0 91 -84 128 -145 64z"/>
</g>
</svg>
